<svg width="20" height="16" viewBox="0 0 20 16" fill="none" xmlns="http://www.w3.org/2000/svg">
<path d="M18.5714 0.857178H1.42857C1.04969 0.857178 0.686328 1.00769 0.418419 1.2756C0.15051 1.54351 0 1.90687 0 2.28575V13.7143C0 14.0932 0.15051 14.4566 0.418419 14.7245C0.686328 14.9924 1.04969 15.1429 1.42857 15.1429H18.5714C18.9503 15.1429 19.3137 14.9924 19.5816 14.7245C19.8495 14.4566 20 14.0932 20 13.7143V2.28575C20 1.90687 19.8495 1.54351 19.5816 1.2756C19.3137 1.00769 18.9503 0.857178 18.5714 0.857178ZM17 2.28575L10 7.12861L3 2.28575H17ZM1.42857 13.7143V2.93575L9.59286 8.58575C9.71243 8.6687 9.85448 8.71315 10 8.71315C10.1455 8.71315 10.2876 8.6687 10.4071 8.58575L18.5714 2.93575V13.7143H1.42857Z" fill="#505856"/>
</svg>
