<svg width="18" height="20" viewBox="0 0 18 20" fill="none" xmlns="http://www.w3.org/2000/svg">
<path d="M17.7354 14.1325L15.7859 10.5333V6.78571C15.7859 3.04406 12.7418 0 9.00015 0C5.2585 0 2.21444 3.04406 2.21444 6.78571V10.5333L0.264796 14.1325C0.176382 14.2957 0.131883 14.4791 0.135659 14.6647C0.139435 14.8502 0.191357 15.0316 0.286338 15.1911C0.381318 15.3506 0.516099 15.4827 0.677473 15.5744C0.838848 15.6661 1.02128 15.7143 1.20689 15.7143H5.08792C5.0771 15.833 5.07163 15.9522 5.07154 16.0714C5.07154 17.1133 5.48544 18.1126 6.22219 18.8493C6.95894 19.5861 7.95819 20 9.00011 20C10.042 20 11.0413 19.5861 11.778 18.8493C12.5148 18.1126 12.9287 17.1133 12.9287 16.0714C12.9287 15.9509 12.9229 15.832 12.9123 15.7143H16.7933C16.9789 15.7143 17.1613 15.666 17.3227 15.5743C17.484 15.4826 17.6188 15.3505 17.7137 15.1911C17.8087 15.0316 17.8606 14.8502 17.8644 14.6647C17.8682 14.4791 17.8237 14.2957 17.7353 14.1325H17.7354ZM11.5002 16.0714C11.5004 16.415 11.4299 16.7549 11.2929 17.07C11.156 17.3851 10.9556 17.6686 10.7042 17.9027C10.4528 18.1369 10.1558 18.3168 9.83185 18.4311C9.50786 18.5454 9.16379 18.5917 8.82111 18.567C8.47843 18.5424 8.1445 18.4475 7.84017 18.2881C7.53583 18.1287 7.26761 17.9082 7.05226 17.6405C6.8369 17.3728 6.67904 17.0636 6.58851 16.7322C6.49798 16.4008 6.47673 16.0543 6.52609 15.7143H11.4742C11.4913 15.8326 11.5 15.9519 11.5002 16.0714ZM1.80649 14.2857L3.64301 10.8953V6.78571C3.64301 5.36491 4.20742 4.0023 5.21208 2.99764C6.21674 1.99298 7.57935 1.42857 9.00015 1.42857C10.421 1.42857 11.7836 1.99298 12.7882 2.99764C13.7929 4.0023 14.3573 5.36491 14.3573 6.78571V10.8953L16.1937 14.2857H1.80649Z" fill="#505856"/>
</svg>
