<svg width="153" height="110" viewBox="0 0 153 110" fill="none" xmlns="http://www.w3.org/2000/svg">
<path d="M123.186 19.6053C118.911 7.35637 105.634 -1.01384 90.5709 0.0991289C78.3114 1.0068 68.1359 7.95246 63.4492 17.3721C58.9545 12.347 51.8155 9.35826 44.0144 9.93559C31.4405 10.8662 21.9156 20.6943 22.7375 31.8886C22.8102 32.8776 22.9845 33.8342 23.2087 34.7732C23.1205 34.7773 23.0354 34.7732 22.9482 34.7794C9.41846 35.7799 -0.832877 46.3583 0.0533999 58.4061C0.935526 70.456 12.6211 79.4098 26.1519 78.4093C28.5979 78.228 30.9351 77.7257 33.1217 76.9629C33.1362 77.2755 33.1414 77.5798 33.1642 77.8893C34.5767 97.159 53.2674 111.479 74.9075 109.878C94.6951 108.415 110.09 94.1379 111.499 76.9733C114.953 77.7768 118.619 78.0832 122.398 77.8039C140.44 76.47 154.11 62.3651 152.929 46.2989C151.865 31.7615 138.996 20.6026 123.186 19.6053Z" fill="white"/>
</svg>
