<svg width="172" height="137" viewBox="0 0 172 137" fill="none" xmlns="http://www.w3.org/2000/svg">
<path d="M144.449 44.244C141.697 44.244 139.041 44.6618 136.531 45.4173C136.543 45.0272 136.563 44.6371 136.563 44.244C136.563 19.8097 116.836 0 92.4945 0C70.2382 0 51.8472 16.568 48.862 38.0852C45.0649 36.7533 40.988 36.0211 36.7371 36.0211C16.4468 36.0211 0 52.5353 0 72.9069C0 91.3469 13.4761 106.622 31.0785 109.356C34.8538 125.205 49.0186 137 65.9612 137C79.7476 137 91.7 129.193 97.7182 117.748C102.332 124.506 110.069 128.942 118.845 128.942C132.985 128.942 144.447 117.433 144.447 103.237C144.447 101.985 144.327 100.762 144.155 99.5567C144.253 99.5567 144.349 99.5713 144.447 99.5713C159.665 99.5713 172 87.1867 172 71.9069C172.001 56.6315 159.666 44.244 144.449 44.244Z" fill="white"/>
</svg>
