<svg width="237" height="187" viewBox="0 0 237 187" fill="none" xmlns="http://www.w3.org/2000/svg">
<path opacity="0.1" d="M324.899 27.3063C276.684 0.670671 220.202 -6.81781 166.713 6.33354C113.223 19.4849 66.653 52.3101 36.286 98.2664C5.91908 144.223 -6.01475 199.935 2.86324 254.297C11.7412 308.66 40.779 357.681 84.1885 391.589C127.598 425.497 182.191 441.801 237.086 437.252C291.981 432.703 343.145 407.635 380.381 367.044C417.617 326.453 438.19 273.322 437.999 218.239C437.807 163.156 416.866 110.169 379.349 69.8378L313.34 131.242C335.413 154.97 347.733 186.145 347.846 218.552C347.959 250.96 335.855 282.219 313.947 306.101C292.04 329.982 261.938 344.73 229.641 347.407C197.344 350.083 165.224 340.491 139.685 320.541C114.145 300.592 97.061 271.751 91.8377 239.767C86.6144 207.783 93.6356 175.005 111.502 147.967C129.368 120.929 156.767 101.617 188.237 93.8795C219.707 86.142 252.938 90.5478 281.305 106.219L324.899 27.3063Z" fill="#4EBA6F"/>
</svg>
