<svg width="24" height="25" viewBox="0 0 24 25" fill="none" xmlns="http://www.w3.org/2000/svg">
<path d="M7.8 2.17383H16.2C19.4 2.17383 22 4.77383 22 7.97383V16.3738C22 17.9121 21.3889 19.3873 20.3012 20.475C19.2135 21.5628 17.7383 22.1738 16.2 22.1738H7.8C4.6 22.1738 2 19.5738 2 16.3738V7.97383C2 6.43557 2.61107 4.96032 3.69878 3.87261C4.78649 2.7849 6.26174 2.17383 7.8 2.17383ZM7.6 4.17383C6.64522 4.17383 5.72955 4.55311 5.05442 5.22824C4.37928 5.90337 4 6.81905 4 7.77383V16.5738C4 18.5638 5.61 20.1738 7.6 20.1738H16.4C17.3548 20.1738 18.2705 19.7945 18.9456 19.1194C19.6207 18.4443 20 17.5286 20 16.5738V7.77383C20 5.78383 18.39 4.17383 16.4 4.17383H7.6ZM17.25 5.67383C17.5815 5.67383 17.8995 5.80552 18.1339 6.03994C18.3683 6.27436 18.5 6.59231 18.5 6.92383C18.5 7.25535 18.3683 7.57329 18.1339 7.80771C17.8995 8.04213 17.5815 8.17383 17.25 8.17383C16.9185 8.17383 16.6005 8.04213 16.3661 7.80771C16.1317 7.57329 16 7.25535 16 6.92383C16 6.59231 16.1317 6.27436 16.3661 6.03994C16.6005 5.80552 16.9185 5.67383 17.25 5.67383ZM12 7.17383C13.3261 7.17383 14.5979 7.70061 15.5355 8.63829C16.4732 9.57598 17 10.8477 17 12.1738C17 13.4999 16.4732 14.7717 15.5355 15.7094C14.5979 16.647 13.3261 17.1738 12 17.1738C10.6739 17.1738 9.40215 16.647 8.46447 15.7094C7.52678 14.7717 7 13.4999 7 12.1738C7 10.8477 7.52678 9.57598 8.46447 8.63829C9.40215 7.70061 10.6739 7.17383 12 7.17383ZM12 9.17383C11.2044 9.17383 10.4413 9.4899 9.87868 10.0525C9.31607 10.6151 9 11.3782 9 12.1738C9 12.9695 9.31607 13.7325 9.87868 14.2951C10.4413 14.8578 11.2044 15.1738 12 15.1738C12.7956 15.1738 13.5587 14.8578 14.1213 14.2951C14.6839 13.7325 15 12.9695 15 12.1738C15 11.3782 14.6839 10.6151 14.1213 10.0525C13.5587 9.4899 12.7956 9.17383 12 9.17383Z" fill="#616A7C"/>
</svg>
