<svg width="24" height="25" viewBox="0 0 24 25" fill="none" xmlns="http://www.w3.org/2000/svg">
<path fill-rule="evenodd" clip-rule="evenodd" d="M12.5099 8.96983V10.6668C12.8652 10.1255 13.3551 9.68573 13.9314 9.39054C14.5078 9.09535 15.1509 8.95486 15.7979 8.98283C19.2529 8.98283 19.9999 11.1428 19.9999 13.9528V19.6738H16.7999V14.6018C16.7999 13.3918 16.5559 11.8358 14.6719 11.8358C12.8449 11.8358 12.5329 13.1528 12.5329 14.5118V19.6738H9.34287V8.96983H12.5099ZM7.19987 6.27983C7.19948 6.59683 7.10551 6.90666 6.92975 7.17048C6.75399 7.4343 6.50426 7.64036 6.21187 7.76283C5.9196 7.88431 5.59779 7.91609 5.2874 7.85412C4.97702 7.79215 4.69208 7.63923 4.46887 7.41483C4.24524 7.19029 4.09298 6.90464 4.03126 6.5938C3.96954 6.28296 4.0011 5.9608 4.12198 5.66785C4.24286 5.3749 4.44766 5.12423 4.71062 4.94737C4.97358 4.7705 5.28297 4.67533 5.59987 4.67383C5.81049 4.67383 6.01904 4.71541 6.21355 4.79619C6.40807 4.87697 6.58472 4.99537 6.73337 5.14458C6.88202 5.29379 6.99975 5.47088 7.0798 5.66569C7.15986 5.86051 7.20066 6.06921 7.19987 6.27983Z" fill="#616A7C"/>
<path d="M7.2 8.98242H4V19.6734H7.2V8.98242Z" fill="#616A7C"/>
</svg>
